<mxfile host="app.diagrams.net" modified="2023-10-27T07:05:46.210Z" agent="Mozilla/5.0 (Windows NT 10.0; Win64; x64) AppleWebKit/537.36 (KHTML, like Gecko) Chrome/115.0.0.0 Safari/537.36" etag="TCe0orIsqi7DTWuPVlua" version="22.0.8" type="github">
  <diagram id="C5RBs43oDa-KdzZeNtuy" name="Page-1">
    <mxGraphModel dx="1509" dy="798" grid="1" gridSize="10" guides="1" tooltips="1" connect="1" arrows="1" fold="1" page="1" pageScale="1" pageWidth="827" pageHeight="1169" math="0" shadow="0">
      <root>
        <mxCell id="WIyWlLk6GJQsqaUBKTNV-0" />
        <mxCell id="WIyWlLk6GJQsqaUBKTNV-1" parent="WIyWlLk6GJQsqaUBKTNV-0" />
        <mxCell id="WIyWlLk6GJQsqaUBKTNV-2" value="" style="rounded=0;html=1;jettySize=auto;orthogonalLoop=1;fontSize=11;endArrow=block;endFill=0;endSize=8;strokeWidth=1;shadow=0;labelBackgroundColor=none;edgeStyle=orthogonalEdgeStyle;" parent="WIyWlLk6GJQsqaUBKTNV-1" source="WIyWlLk6GJQsqaUBKTNV-3" target="WIyWlLk6GJQsqaUBKTNV-6" edge="1">
          <mxGeometry relative="1" as="geometry" />
        </mxCell>
        <mxCell id="WIyWlLk6GJQsqaUBKTNV-3" value="Start" style="rounded=1;whiteSpace=wrap;html=1;fontSize=12;glass=0;strokeWidth=1;shadow=0;" parent="WIyWlLk6GJQsqaUBKTNV-1" vertex="1">
          <mxGeometry x="65" y="255" width="70" height="40" as="geometry" />
        </mxCell>
        <mxCell id="WIyWlLk6GJQsqaUBKTNV-4" value="Yes" style="rounded=0;html=1;jettySize=auto;orthogonalLoop=1;fontSize=11;endArrow=block;endFill=0;endSize=8;strokeWidth=1;shadow=0;labelBackgroundColor=none;edgeStyle=orthogonalEdgeStyle;" parent="WIyWlLk6GJQsqaUBKTNV-1" source="WIyWlLk6GJQsqaUBKTNV-6" target="WIyWlLk6GJQsqaUBKTNV-10" edge="1">
          <mxGeometry x="-0.0562" y="-15" relative="1" as="geometry">
            <mxPoint as="offset" />
            <Array as="points">
              <mxPoint x="230" y="280" />
              <mxPoint x="180" y="280" />
            </Array>
          </mxGeometry>
        </mxCell>
        <mxCell id="WIyWlLk6GJQsqaUBKTNV-5" value="No" style="edgeStyle=orthogonalEdgeStyle;rounded=0;html=1;jettySize=auto;orthogonalLoop=1;fontSize=11;endArrow=block;endFill=0;endSize=8;strokeWidth=1;shadow=0;labelBackgroundColor=none;" parent="WIyWlLk6GJQsqaUBKTNV-1" source="WIyWlLk6GJQsqaUBKTNV-6" target="WIyWlLk6GJQsqaUBKTNV-7" edge="1">
          <mxGeometry y="10" relative="1" as="geometry">
            <mxPoint as="offset" />
          </mxGeometry>
        </mxCell>
        <mxCell id="WIyWlLk6GJQsqaUBKTNV-6" value="Have an account in GitHub?" style="rhombus;whiteSpace=wrap;html=1;shadow=0;fontFamily=Helvetica;fontSize=12;align=center;strokeWidth=1;spacing=6;spacingTop=-4;" parent="WIyWlLk6GJQsqaUBKTNV-1" vertex="1">
          <mxGeometry x="180" y="185" width="100" height="80" as="geometry" />
        </mxCell>
        <mxCell id="uG6ys0-ojQzpFNeoCmBa-1" value="" style="edgeStyle=orthogonalEdgeStyle;rounded=0;orthogonalLoop=1;jettySize=auto;html=1;" parent="WIyWlLk6GJQsqaUBKTNV-1" source="WIyWlLk6GJQsqaUBKTNV-7" target="uG6ys0-ojQzpFNeoCmBa-0" edge="1">
          <mxGeometry relative="1" as="geometry" />
        </mxCell>
        <mxCell id="WIyWlLk6GJQsqaUBKTNV-7" value="Go to GitHub webpage." style="rounded=1;whiteSpace=wrap;html=1;fontSize=12;glass=0;strokeWidth=1;shadow=0;" parent="WIyWlLk6GJQsqaUBKTNV-1" vertex="1">
          <mxGeometry x="354" y="190" width="120" height="40" as="geometry" />
        </mxCell>
        <mxCell id="WIyWlLk6GJQsqaUBKTNV-8" value="Yes" style="rounded=0;html=1;jettySize=auto;orthogonalLoop=1;fontSize=11;endArrow=block;endFill=0;endSize=8;strokeWidth=1;shadow=0;labelBackgroundColor=none;edgeStyle=orthogonalEdgeStyle;" parent="WIyWlLk6GJQsqaUBKTNV-1" source="WIyWlLk6GJQsqaUBKTNV-10" target="WIyWlLk6GJQsqaUBKTNV-11" edge="1">
          <mxGeometry x="-0.0008" y="10" relative="1" as="geometry">
            <mxPoint as="offset" />
          </mxGeometry>
        </mxCell>
        <mxCell id="WIyWlLk6GJQsqaUBKTNV-9" value="No" style="edgeStyle=orthogonalEdgeStyle;rounded=0;html=1;jettySize=auto;orthogonalLoop=1;fontSize=11;endArrow=block;endFill=0;endSize=8;strokeWidth=1;shadow=0;labelBackgroundColor=none;" parent="WIyWlLk6GJQsqaUBKTNV-1" source="WIyWlLk6GJQsqaUBKTNV-10" target="WIyWlLk6GJQsqaUBKTNV-12" edge="1">
          <mxGeometry y="10" relative="1" as="geometry">
            <mxPoint as="offset" />
          </mxGeometry>
        </mxCell>
        <mxCell id="WIyWlLk6GJQsqaUBKTNV-10" value="Have an &lt;br&gt;account in Hacktoberfest?" style="rhombus;whiteSpace=wrap;html=1;shadow=0;fontFamily=Helvetica;fontSize=12;align=center;strokeWidth=1;spacing=6;spacingTop=-4;" parent="WIyWlLk6GJQsqaUBKTNV-1" vertex="1">
          <mxGeometry x="110" y="300" width="140" height="100" as="geometry" />
        </mxCell>
        <mxCell id="uG6ys0-ojQzpFNeoCmBa-22" value="" style="edgeStyle=orthogonalEdgeStyle;rounded=0;orthogonalLoop=1;jettySize=auto;html=1;" parent="WIyWlLk6GJQsqaUBKTNV-1" source="WIyWlLk6GJQsqaUBKTNV-11" target="uG6ys0-ojQzpFNeoCmBa-21" edge="1">
          <mxGeometry relative="1" as="geometry" />
        </mxCell>
        <mxCell id="WIyWlLk6GJQsqaUBKTNV-11" value="Go to GitHub web page" style="rounded=1;whiteSpace=wrap;html=1;fontSize=12;glass=0;strokeWidth=1;shadow=0;" parent="WIyWlLk6GJQsqaUBKTNV-1" vertex="1">
          <mxGeometry x="160" y="440" width="120" height="40" as="geometry" />
        </mxCell>
        <mxCell id="uG6ys0-ojQzpFNeoCmBa-8" value="" style="edgeStyle=orthogonalEdgeStyle;rounded=0;orthogonalLoop=1;jettySize=auto;html=1;" parent="WIyWlLk6GJQsqaUBKTNV-1" source="WIyWlLk6GJQsqaUBKTNV-12" target="uG6ys0-ojQzpFNeoCmBa-7" edge="1">
          <mxGeometry relative="1" as="geometry">
            <Array as="points">
              <mxPoint x="410" y="330" />
            </Array>
          </mxGeometry>
        </mxCell>
        <mxCell id="WIyWlLk6GJQsqaUBKTNV-12" value="Go to Hacktobefest webpage." style="rounded=1;whiteSpace=wrap;html=1;fontSize=12;glass=0;strokeWidth=1;shadow=0;" parent="WIyWlLk6GJQsqaUBKTNV-1" vertex="1">
          <mxGeometry x="350" y="280" width="120" height="40" as="geometry" />
        </mxCell>
        <mxCell id="uG6ys0-ojQzpFNeoCmBa-3" value="" style="edgeStyle=orthogonalEdgeStyle;rounded=0;orthogonalLoop=1;jettySize=auto;html=1;" parent="WIyWlLk6GJQsqaUBKTNV-1" source="uG6ys0-ojQzpFNeoCmBa-0" target="uG6ys0-ojQzpFNeoCmBa-2" edge="1">
          <mxGeometry relative="1" as="geometry" />
        </mxCell>
        <mxCell id="uG6ys0-ojQzpFNeoCmBa-0" value="Press Sign up." style="rounded=1;whiteSpace=wrap;html=1;fontSize=12;glass=0;strokeWidth=1;shadow=0;" parent="WIyWlLk6GJQsqaUBKTNV-1" vertex="1">
          <mxGeometry x="500" y="190" width="120" height="40" as="geometry" />
        </mxCell>
        <mxCell id="uG6ys0-ojQzpFNeoCmBa-5" value="" style="edgeStyle=orthogonalEdgeStyle;rounded=0;orthogonalLoop=1;jettySize=auto;html=1;entryX=1;entryY=0.5;entryDx=0;entryDy=0;" parent="WIyWlLk6GJQsqaUBKTNV-1" source="uG6ys0-ojQzpFNeoCmBa-2" target="uG6ys0-ojQzpFNeoCmBa-4" edge="1">
          <mxGeometry relative="1" as="geometry" />
        </mxCell>
        <mxCell id="uG6ys0-ojQzpFNeoCmBa-2" value="Answer all the questions necessary that GitHub ask." style="rounded=1;whiteSpace=wrap;html=1;fontSize=12;glass=0;strokeWidth=1;shadow=0;" parent="WIyWlLk6GJQsqaUBKTNV-1" vertex="1">
          <mxGeometry x="660" y="200" width="130" height="50" as="geometry" />
        </mxCell>
        <mxCell id="uG6ys0-ojQzpFNeoCmBa-6" value="" style="edgeStyle=orthogonalEdgeStyle;rounded=0;orthogonalLoop=1;jettySize=auto;html=1;entryX=1;entryY=0;entryDx=0;entryDy=0;" parent="WIyWlLk6GJQsqaUBKTNV-1" source="uG6ys0-ojQzpFNeoCmBa-4" target="WIyWlLk6GJQsqaUBKTNV-10" edge="1">
          <mxGeometry relative="1" as="geometry">
            <Array as="points">
              <mxPoint x="255" y="270" />
            </Array>
          </mxGeometry>
        </mxCell>
        <mxCell id="uG6ys0-ojQzpFNeoCmBa-4" value="Click Register, make account" style="rounded=1;whiteSpace=wrap;html=1;fontSize=12;glass=0;strokeWidth=1;shadow=0;" parent="WIyWlLk6GJQsqaUBKTNV-1" vertex="1">
          <mxGeometry x="530" y="250" width="130" height="50" as="geometry" />
        </mxCell>
        <mxCell id="uG6ys0-ojQzpFNeoCmBa-10" value="" style="edgeStyle=orthogonalEdgeStyle;rounded=0;orthogonalLoop=1;jettySize=auto;html=1;exitX=0.5;exitY=1;exitDx=0;exitDy=0;" parent="WIyWlLk6GJQsqaUBKTNV-1" source="uG6ys0-ojQzpFNeoCmBa-7" target="uG6ys0-ojQzpFNeoCmBa-9" edge="1">
          <mxGeometry relative="1" as="geometry" />
        </mxCell>
        <mxCell id="uG6ys0-ojQzpFNeoCmBa-7" value="Click start Hacking" style="rounded=1;whiteSpace=wrap;html=1;fontSize=12;glass=0;strokeWidth=1;shadow=0;" parent="WIyWlLk6GJQsqaUBKTNV-1" vertex="1">
          <mxGeometry x="670" y="310" width="120" height="40" as="geometry" />
        </mxCell>
        <mxCell id="uG6ys0-ojQzpFNeoCmBa-12" value="" style="edgeStyle=orthogonalEdgeStyle;rounded=0;orthogonalLoop=1;jettySize=auto;html=1;" parent="WIyWlLk6GJQsqaUBKTNV-1" source="uG6ys0-ojQzpFNeoCmBa-9" target="uG6ys0-ojQzpFNeoCmBa-11" edge="1">
          <mxGeometry relative="1" as="geometry" />
        </mxCell>
        <mxCell id="uG6ys0-ojQzpFNeoCmBa-9" value="Fill in all the necessary information&amp;nbsp;" style="rounded=1;whiteSpace=wrap;html=1;fontSize=12;glass=0;strokeWidth=1;shadow=0;" parent="WIyWlLk6GJQsqaUBKTNV-1" vertex="1">
          <mxGeometry x="500" y="340" width="140" height="50" as="geometry" />
        </mxCell>
        <mxCell id="uG6ys0-ojQzpFNeoCmBa-16" value="" style="edgeStyle=orthogonalEdgeStyle;rounded=0;orthogonalLoop=1;jettySize=auto;html=1;entryX=0.889;entryY=0.017;entryDx=0;entryDy=0;entryPerimeter=0;" parent="WIyWlLk6GJQsqaUBKTNV-1" source="uG6ys0-ojQzpFNeoCmBa-11" target="WIyWlLk6GJQsqaUBKTNV-11" edge="1">
          <mxGeometry relative="1" as="geometry" />
        </mxCell>
        <mxCell id="uG6ys0-ojQzpFNeoCmBa-11" value="Make your account." style="rounded=1;whiteSpace=wrap;html=1;fontSize=12;glass=0;strokeWidth=1;shadow=0;" parent="WIyWlLk6GJQsqaUBKTNV-1" vertex="1">
          <mxGeometry x="330" y="340" width="110" height="30" as="geometry" />
        </mxCell>
        <mxCell id="uG6ys0-ojQzpFNeoCmBa-24" value="" style="edgeStyle=orthogonalEdgeStyle;rounded=0;orthogonalLoop=1;jettySize=auto;html=1;" parent="WIyWlLk6GJQsqaUBKTNV-1" source="uG6ys0-ojQzpFNeoCmBa-21" target="uG6ys0-ojQzpFNeoCmBa-23" edge="1">
          <mxGeometry relative="1" as="geometry">
            <Array as="points">
              <mxPoint x="590" y="400" />
              <mxPoint x="590" y="420" />
            </Array>
          </mxGeometry>
        </mxCell>
        <mxCell id="uG6ys0-ojQzpFNeoCmBa-21" value="Click on Search bar" style="rounded=1;whiteSpace=wrap;html=1;fontSize=12;glass=0;strokeWidth=1;shadow=0;" parent="WIyWlLk6GJQsqaUBKTNV-1" vertex="1">
          <mxGeometry x="290" y="380" width="120" height="40" as="geometry" />
        </mxCell>
        <mxCell id="uG6ys0-ojQzpFNeoCmBa-26" value="" style="edgeStyle=orthogonalEdgeStyle;rounded=0;orthogonalLoop=1;jettySize=auto;html=1;entryX=1;entryY=0.5;entryDx=0;entryDy=0;exitX=0.5;exitY=1;exitDx=0;exitDy=0;" parent="WIyWlLk6GJQsqaUBKTNV-1" source="uG6ys0-ojQzpFNeoCmBa-23" target="uG6ys0-ojQzpFNeoCmBa-25" edge="1">
          <mxGeometry relative="1" as="geometry" />
        </mxCell>
        <mxCell id="uG6ys0-ojQzpFNeoCmBa-23" value="Type in Hacktoberfest#" style="rounded=1;whiteSpace=wrap;html=1;fontSize=12;glass=0;strokeWidth=1;shadow=0;" parent="WIyWlLk6GJQsqaUBKTNV-1" vertex="1">
          <mxGeometry x="620" y="400" width="120" height="40" as="geometry" />
        </mxCell>
        <mxCell id="uG6ys0-ojQzpFNeoCmBa-28" value="" style="edgeStyle=orthogonalEdgeStyle;rounded=0;orthogonalLoop=1;jettySize=auto;html=1;entryX=1;entryY=0.5;entryDx=0;entryDy=0;" parent="WIyWlLk6GJQsqaUBKTNV-1" source="uG6ys0-ojQzpFNeoCmBa-25" target="uG6ys0-ojQzpFNeoCmBa-27" edge="1">
          <mxGeometry relative="1" as="geometry" />
        </mxCell>
        <mxCell id="uG6ys0-ojQzpFNeoCmBa-25" value="Press Search" style="rounded=1;whiteSpace=wrap;html=1;fontSize=12;glass=0;strokeWidth=1;shadow=0;" parent="WIyWlLk6GJQsqaUBKTNV-1" vertex="1">
          <mxGeometry x="430" y="410" width="120" height="40" as="geometry" />
        </mxCell>
        <mxCell id="uG6ys0-ojQzpFNeoCmBa-30" value="" style="edgeStyle=orthogonalEdgeStyle;rounded=0;orthogonalLoop=1;jettySize=auto;html=1;" parent="WIyWlLk6GJQsqaUBKTNV-1" source="uG6ys0-ojQzpFNeoCmBa-27" target="uG6ys0-ojQzpFNeoCmBa-29" edge="1">
          <mxGeometry relative="1" as="geometry" />
        </mxCell>
        <mxCell id="uG6ys0-ojQzpFNeoCmBa-27" value="Click on a repository" style="rounded=1;whiteSpace=wrap;html=1;fontSize=12;glass=0;strokeWidth=1;shadow=0;" parent="WIyWlLk6GJQsqaUBKTNV-1" vertex="1">
          <mxGeometry x="250" y="490" width="120" height="40" as="geometry" />
        </mxCell>
        <mxCell id="uG6ys0-ojQzpFNeoCmBa-32" value="" style="edgeStyle=orthogonalEdgeStyle;rounded=0;orthogonalLoop=1;jettySize=auto;html=1;entryX=0;entryY=0.5;entryDx=0;entryDy=0;exitX=0;exitY=0.5;exitDx=0;exitDy=0;" parent="WIyWlLk6GJQsqaUBKTNV-1" source="uG6ys0-ojQzpFNeoCmBa-29" target="uG6ys0-ojQzpFNeoCmBa-31" edge="1">
          <mxGeometry relative="1" as="geometry">
            <mxPoint x="100" y="560" as="sourcePoint" />
          </mxGeometry>
        </mxCell>
        <mxCell id="uG6ys0-ojQzpFNeoCmBa-33" value="Yes" style="edgeLabel;html=1;align=center;verticalAlign=middle;resizable=0;points=[];" parent="uG6ys0-ojQzpFNeoCmBa-32" vertex="1" connectable="0">
          <mxGeometry x="0.0222" y="-5" relative="1" as="geometry">
            <mxPoint as="offset" />
          </mxGeometry>
        </mxCell>
        <mxCell id="uG6ys0-ojQzpFNeoCmBa-37" value="" style="edgeStyle=orthogonalEdgeStyle;rounded=0;orthogonalLoop=1;jettySize=auto;html=1;entryX=0;entryY=0.5;entryDx=0;entryDy=0;" parent="WIyWlLk6GJQsqaUBKTNV-1" source="uG6ys0-ojQzpFNeoCmBa-29" target="uG6ys0-ojQzpFNeoCmBa-36" edge="1">
          <mxGeometry relative="1" as="geometry" />
        </mxCell>
        <mxCell id="uG6ys0-ojQzpFNeoCmBa-38" value="No" style="edgeLabel;html=1;align=center;verticalAlign=middle;resizable=0;points=[];" parent="uG6ys0-ojQzpFNeoCmBa-37" vertex="1" connectable="0">
          <mxGeometry x="0.0788" y="-5" relative="1" as="geometry">
            <mxPoint as="offset" />
          </mxGeometry>
        </mxCell>
        <mxCell id="uG6ys0-ojQzpFNeoCmBa-29" value="Are you a Beginner?" style="rhombus;whiteSpace=wrap;html=1;rounded=1;glass=0;strokeWidth=1;shadow=0;" parent="WIyWlLk6GJQsqaUBKTNV-1" vertex="1">
          <mxGeometry x="60" y="480" width="80" height="80" as="geometry" />
        </mxCell>
        <mxCell id="uG6ys0-ojQzpFNeoCmBa-39" value="" style="edgeStyle=orthogonalEdgeStyle;rounded=0;orthogonalLoop=1;jettySize=auto;html=1;" parent="WIyWlLk6GJQsqaUBKTNV-1" source="uG6ys0-ojQzpFNeoCmBa-31" target="uG6ys0-ojQzpFNeoCmBa-41" edge="1">
          <mxGeometry relative="1" as="geometry">
            <mxPoint x="300" y="650" as="targetPoint" />
            <Array as="points">
              <mxPoint x="150" y="630" />
              <mxPoint x="340" y="630" />
            </Array>
          </mxGeometry>
        </mxCell>
        <mxCell id="uG6ys0-ojQzpFNeoCmBa-31" value="Find a repository that is&amp;nbsp; marked Hacktoberfest accepted and beginner friendly" style="whiteSpace=wrap;html=1;rounded=1;glass=0;strokeWidth=1;shadow=0;" parent="WIyWlLk6GJQsqaUBKTNV-1" vertex="1">
          <mxGeometry x="80" y="650" width="140" height="60" as="geometry" />
        </mxCell>
        <mxCell id="uG6ys0-ojQzpFNeoCmBa-42" value="" style="edgeStyle=orthogonalEdgeStyle;rounded=0;orthogonalLoop=1;jettySize=auto;html=1;" parent="WIyWlLk6GJQsqaUBKTNV-1" source="uG6ys0-ojQzpFNeoCmBa-36" target="uG6ys0-ojQzpFNeoCmBa-41" edge="1">
          <mxGeometry relative="1" as="geometry">
            <Array as="points">
              <mxPoint x="260" y="585" />
              <mxPoint x="260" y="570" />
            </Array>
          </mxGeometry>
        </mxCell>
        <mxCell id="uG6ys0-ojQzpFNeoCmBa-36" value="Click on repository marked Hacktoberfest accepted" style="whiteSpace=wrap;html=1;rounded=1;glass=0;strokeWidth=1;shadow=0;" parent="WIyWlLk6GJQsqaUBKTNV-1" vertex="1">
          <mxGeometry x="130" y="555" width="120" height="60" as="geometry" />
        </mxCell>
        <mxCell id="uG6ys0-ojQzpFNeoCmBa-44" value="" style="edgeStyle=orthogonalEdgeStyle;rounded=0;orthogonalLoop=1;jettySize=auto;html=1;entryX=0;entryY=0.5;entryDx=0;entryDy=0;" parent="WIyWlLk6GJQsqaUBKTNV-1" source="uG6ys0-ojQzpFNeoCmBa-41" target="uG6ys0-ojQzpFNeoCmBa-43" edge="1">
          <mxGeometry relative="1" as="geometry" />
        </mxCell>
        <mxCell id="uG6ys0-ojQzpFNeoCmBa-41" value="Scroll down and read the read me" style="whiteSpace=wrap;html=1;rounded=1;glass=0;strokeWidth=1;shadow=0;" parent="WIyWlLk6GJQsqaUBKTNV-1" vertex="1">
          <mxGeometry x="280" y="540" width="120" height="60" as="geometry" />
        </mxCell>
        <mxCell id="uG6ys0-ojQzpFNeoCmBa-46" value="" style="edgeStyle=orthogonalEdgeStyle;rounded=0;orthogonalLoop=1;jettySize=auto;html=1;exitX=1;exitY=0.5;exitDx=0;exitDy=0;entryX=0;entryY=0.5;entryDx=0;entryDy=0;" parent="WIyWlLk6GJQsqaUBKTNV-1" source="uG6ys0-ojQzpFNeoCmBa-43" target="uG6ys0-ojQzpFNeoCmBa-45" edge="1">
          <mxGeometry relative="1" as="geometry">
            <mxPoint x="620" y="500" as="targetPoint" />
            <Array as="points">
              <mxPoint x="560" y="525" />
              <mxPoint x="630" y="525" />
              <mxPoint x="630" y="500" />
            </Array>
          </mxGeometry>
        </mxCell>
        <mxCell id="uG6ys0-ojQzpFNeoCmBa-43" value="Press the green &lt;br&gt;&quot;fork&quot; button" style="whiteSpace=wrap;html=1;rounded=1;glass=0;strokeWidth=1;shadow=0;" parent="WIyWlLk6GJQsqaUBKTNV-1" vertex="1">
          <mxGeometry x="440" y="470" width="120" height="60" as="geometry" />
        </mxCell>
        <mxCell id="PUT8d5aDhDW9RPfoJlv--9" value="" style="edgeStyle=orthogonalEdgeStyle;rounded=0;orthogonalLoop=1;jettySize=auto;html=1;entryX=1;entryY=0.5;entryDx=0;entryDy=0;" edge="1" parent="WIyWlLk6GJQsqaUBKTNV-1" source="uG6ys0-ojQzpFNeoCmBa-45" target="PUT8d5aDhDW9RPfoJlv--8">
          <mxGeometry relative="1" as="geometry" />
        </mxCell>
        <mxCell id="uG6ys0-ojQzpFNeoCmBa-45" value="click on a file in the repository" style="whiteSpace=wrap;html=1;rounded=1;glass=0;strokeWidth=1;shadow=0;" parent="WIyWlLk6GJQsqaUBKTNV-1" vertex="1">
          <mxGeometry x="660" y="470" width="120" height="60" as="geometry" />
        </mxCell>
        <mxCell id="PUT8d5aDhDW9RPfoJlv--3" value="" style="edgeStyle=orthogonalEdgeStyle;rounded=0;orthogonalLoop=1;jettySize=auto;html=1;exitX=0;exitY=0.5;exitDx=0;exitDy=0;" edge="1" parent="WIyWlLk6GJQsqaUBKTNV-1" source="PUT8d5aDhDW9RPfoJlv--0" target="PUT8d5aDhDW9RPfoJlv--2">
          <mxGeometry relative="1" as="geometry">
            <Array as="points">
              <mxPoint x="590" y="650" />
              <mxPoint x="490" y="650" />
            </Array>
          </mxGeometry>
        </mxCell>
        <mxCell id="PUT8d5aDhDW9RPfoJlv--4" value="New file/program" style="edgeLabel;html=1;align=center;verticalAlign=middle;resizable=0;points=[];" vertex="1" connectable="0" parent="PUT8d5aDhDW9RPfoJlv--3">
          <mxGeometry x="-0.26" y="2" relative="1" as="geometry">
            <mxPoint as="offset" />
          </mxGeometry>
        </mxCell>
        <mxCell id="PUT8d5aDhDW9RPfoJlv--6" value="" style="edgeStyle=orthogonalEdgeStyle;rounded=0;orthogonalLoop=1;jettySize=auto;html=1;exitX=1;exitY=0.5;exitDx=0;exitDy=0;entryX=0.5;entryY=0;entryDx=0;entryDy=0;" edge="1" parent="WIyWlLk6GJQsqaUBKTNV-1" source="PUT8d5aDhDW9RPfoJlv--0" target="PUT8d5aDhDW9RPfoJlv--5">
          <mxGeometry relative="1" as="geometry">
            <mxPoint x="800.05" y="720" as="sourcePoint" />
            <mxPoint x="759.9973684210529" y="840" as="targetPoint" />
          </mxGeometry>
        </mxCell>
        <mxCell id="PUT8d5aDhDW9RPfoJlv--7" value="Change file" style="edgeLabel;html=1;align=center;verticalAlign=middle;resizable=0;points=[];" vertex="1" connectable="0" parent="PUT8d5aDhDW9RPfoJlv--6">
          <mxGeometry x="-0.3385" y="2" relative="1" as="geometry">
            <mxPoint x="-5" y="34" as="offset" />
          </mxGeometry>
        </mxCell>
        <mxCell id="PUT8d5aDhDW9RPfoJlv--0" value="Did the read &lt;br&gt;me say to create a &lt;br&gt;new file/program or to &lt;br&gt;change an already &lt;br&gt;made program?" style="rhombus;whiteSpace=wrap;html=1;rounded=1;glass=0;strokeWidth=1;shadow=0;" vertex="1" parent="WIyWlLk6GJQsqaUBKTNV-1">
          <mxGeometry x="650" y="610" width="160" height="160" as="geometry" />
        </mxCell>
        <mxCell id="PUT8d5aDhDW9RPfoJlv--12" value="" style="edgeStyle=orthogonalEdgeStyle;rounded=0;orthogonalLoop=1;jettySize=auto;html=1;entryX=1;entryY=0.5;entryDx=0;entryDy=0;exitX=0;exitY=0.5;exitDx=0;exitDy=0;" edge="1" parent="WIyWlLk6GJQsqaUBKTNV-1" source="PUT8d5aDhDW9RPfoJlv--2" target="PUT8d5aDhDW9RPfoJlv--11">
          <mxGeometry relative="1" as="geometry">
            <Array as="points">
              <mxPoint x="410" y="580" />
              <mxPoint x="410" y="670" />
            </Array>
          </mxGeometry>
        </mxCell>
        <mxCell id="PUT8d5aDhDW9RPfoJlv--2" value="Go to the top left, and hover above the list of files and documents" style="whiteSpace=wrap;html=1;rounded=1;glass=0;strokeWidth=1;shadow=0;" vertex="1" parent="WIyWlLk6GJQsqaUBKTNV-1">
          <mxGeometry x="440" y="550" width="120" height="60" as="geometry" />
        </mxCell>
        <mxCell id="PUT8d5aDhDW9RPfoJlv--18" value="" style="edgeStyle=orthogonalEdgeStyle;rounded=0;orthogonalLoop=1;jettySize=auto;html=1;entryX=1;entryY=0.5;entryDx=0;entryDy=0;" edge="1" parent="WIyWlLk6GJQsqaUBKTNV-1" source="PUT8d5aDhDW9RPfoJlv--5" target="PUT8d5aDhDW9RPfoJlv--17">
          <mxGeometry relative="1" as="geometry" />
        </mxCell>
        <mxCell id="PUT8d5aDhDW9RPfoJlv--5" value="Click the file that you want to change based off of the instructions in the read me" style="whiteSpace=wrap;html=1;rounded=1;glass=0;strokeWidth=1;shadow=0;" vertex="1" parent="WIyWlLk6GJQsqaUBKTNV-1">
          <mxGeometry x="700" y="810" width="140" height="80" as="geometry" />
        </mxCell>
        <mxCell id="PUT8d5aDhDW9RPfoJlv--10" value="" style="edgeStyle=orthogonalEdgeStyle;rounded=0;orthogonalLoop=1;jettySize=auto;html=1;" edge="1" parent="WIyWlLk6GJQsqaUBKTNV-1" source="PUT8d5aDhDW9RPfoJlv--8" target="PUT8d5aDhDW9RPfoJlv--0">
          <mxGeometry relative="1" as="geometry" />
        </mxCell>
        <mxCell id="PUT8d5aDhDW9RPfoJlv--8" value="Click the edit button in the top right, and then github.dev" style="whiteSpace=wrap;html=1;rounded=1;glass=0;strokeWidth=1;shadow=0;" vertex="1" parent="WIyWlLk6GJQsqaUBKTNV-1">
          <mxGeometry x="570" y="540" width="120" height="60" as="geometry" />
        </mxCell>
        <mxCell id="PUT8d5aDhDW9RPfoJlv--14" value="" style="edgeStyle=orthogonalEdgeStyle;rounded=0;orthogonalLoop=1;jettySize=auto;html=1;" edge="1" parent="WIyWlLk6GJQsqaUBKTNV-1" source="PUT8d5aDhDW9RPfoJlv--11" target="PUT8d5aDhDW9RPfoJlv--13">
          <mxGeometry relative="1" as="geometry">
            <Array as="points">
              <mxPoint x="310" y="710" />
              <mxPoint x="250" y="710" />
            </Array>
          </mxGeometry>
        </mxCell>
        <mxCell id="PUT8d5aDhDW9RPfoJlv--11" value="Click on the new file button" style="whiteSpace=wrap;html=1;rounded=1;glass=0;strokeWidth=1;shadow=0;" vertex="1" parent="WIyWlLk6GJQsqaUBKTNV-1">
          <mxGeometry x="250" y="640" width="120" height="60" as="geometry" />
        </mxCell>
        <mxCell id="PUT8d5aDhDW9RPfoJlv--16" value="" style="edgeStyle=orthogonalEdgeStyle;rounded=0;orthogonalLoop=1;jettySize=auto;html=1;exitX=1;exitY=0.5;exitDx=0;exitDy=0;" edge="1" parent="WIyWlLk6GJQsqaUBKTNV-1" source="PUT8d5aDhDW9RPfoJlv--13" target="PUT8d5aDhDW9RPfoJlv--15">
          <mxGeometry relative="1" as="geometry">
            <mxPoint x="340" y="780" as="sourcePoint" />
            <Array as="points">
              <mxPoint x="320" y="760" />
              <mxPoint x="320" y="710" />
              <mxPoint x="390" y="710" />
              <mxPoint x="390" y="700" />
            </Array>
          </mxGeometry>
        </mxCell>
        <mxCell id="PUT8d5aDhDW9RPfoJlv--13" value="Make your program with the instructions from the read me" style="whiteSpace=wrap;html=1;rounded=1;glass=0;strokeWidth=1;shadow=0;" vertex="1" parent="WIyWlLk6GJQsqaUBKTNV-1">
          <mxGeometry x="190" y="730" width="120" height="60" as="geometry" />
        </mxCell>
        <mxCell id="PUT8d5aDhDW9RPfoJlv--21" value="" style="edgeStyle=orthogonalEdgeStyle;rounded=0;orthogonalLoop=1;jettySize=auto;html=1;entryX=1;entryY=0.5;entryDx=0;entryDy=0;" edge="1" parent="WIyWlLk6GJQsqaUBKTNV-1" source="PUT8d5aDhDW9RPfoJlv--15" target="PUT8d5aDhDW9RPfoJlv--20">
          <mxGeometry relative="1" as="geometry" />
        </mxCell>
        <mxCell id="PUT8d5aDhDW9RPfoJlv--15" value="Click the source control button" style="whiteSpace=wrap;html=1;rounded=1;glass=0;strokeWidth=1;shadow=0;" vertex="1" parent="WIyWlLk6GJQsqaUBKTNV-1">
          <mxGeometry x="420" y="670" width="120" height="60" as="geometry" />
        </mxCell>
        <mxCell id="PUT8d5aDhDW9RPfoJlv--19" value="" style="edgeStyle=orthogonalEdgeStyle;rounded=0;orthogonalLoop=1;jettySize=auto;html=1;entryX=1;entryY=0.5;entryDx=0;entryDy=0;exitX=0.5;exitY=0;exitDx=0;exitDy=0;" edge="1" parent="WIyWlLk6GJQsqaUBKTNV-1" source="PUT8d5aDhDW9RPfoJlv--17" target="PUT8d5aDhDW9RPfoJlv--15">
          <mxGeometry relative="1" as="geometry" />
        </mxCell>
        <mxCell id="PUT8d5aDhDW9RPfoJlv--17" value="change the file following the instructions in the read me" style="whiteSpace=wrap;html=1;rounded=1;glass=0;strokeWidth=1;shadow=0;" vertex="1" parent="WIyWlLk6GJQsqaUBKTNV-1">
          <mxGeometry x="540" y="720" width="120" height="60" as="geometry" />
        </mxCell>
        <mxCell id="PUT8d5aDhDW9RPfoJlv--24" value="" style="edgeStyle=orthogonalEdgeStyle;rounded=0;orthogonalLoop=1;jettySize=auto;html=1;exitX=0.5;exitY=1;exitDx=0;exitDy=0;entryX=0.5;entryY=0;entryDx=0;entryDy=0;" edge="1" parent="WIyWlLk6GJQsqaUBKTNV-1" source="PUT8d5aDhDW9RPfoJlv--20" target="PUT8d5aDhDW9RPfoJlv--23">
          <mxGeometry relative="1" as="geometry">
            <Array as="points">
              <mxPoint x="395" y="820" />
              <mxPoint x="180" y="820" />
              <mxPoint x="180" y="730" />
              <mxPoint x="105" y="730" />
            </Array>
          </mxGeometry>
        </mxCell>
        <mxCell id="PUT8d5aDhDW9RPfoJlv--20" value="Click on the file that pops up under the Commit &amp;amp; Push button" style="whiteSpace=wrap;html=1;rounded=1;glass=0;strokeWidth=1;shadow=0;" vertex="1" parent="WIyWlLk6GJQsqaUBKTNV-1">
          <mxGeometry x="330" y="740" width="130" height="60" as="geometry" />
        </mxCell>
        <mxCell id="PUT8d5aDhDW9RPfoJlv--29" value="" style="edgeStyle=orthogonalEdgeStyle;rounded=0;orthogonalLoop=1;jettySize=auto;html=1;" edge="1" parent="WIyWlLk6GJQsqaUBKTNV-1" source="PUT8d5aDhDW9RPfoJlv--23" target="PUT8d5aDhDW9RPfoJlv--28">
          <mxGeometry relative="1" as="geometry" />
        </mxCell>
        <mxCell id="PUT8d5aDhDW9RPfoJlv--23" value="Check your commit and see if you are satisfied with what you added or changed" style="whiteSpace=wrap;html=1;rounded=1;glass=0;strokeWidth=1;shadow=0;" vertex="1" parent="WIyWlLk6GJQsqaUBKTNV-1">
          <mxGeometry x="40" y="760" width="130" height="60" as="geometry" />
        </mxCell>
        <mxCell id="PUT8d5aDhDW9RPfoJlv--31" value="" style="edgeStyle=orthogonalEdgeStyle;rounded=0;orthogonalLoop=1;jettySize=auto;html=1;exitX=0.5;exitY=1;exitDx=0;exitDy=0;entryX=0.5;entryY=1;entryDx=0;entryDy=0;" edge="1" parent="WIyWlLk6GJQsqaUBKTNV-1" source="PUT8d5aDhDW9RPfoJlv--28" target="PUT8d5aDhDW9RPfoJlv--30">
          <mxGeometry relative="1" as="geometry">
            <Array as="points">
              <mxPoint x="192" y="980" />
              <mxPoint x="60" y="980" />
            </Array>
          </mxGeometry>
        </mxCell>
        <mxCell id="PUT8d5aDhDW9RPfoJlv--32" value="No" style="edgeLabel;html=1;align=center;verticalAlign=middle;resizable=0;points=[];" vertex="1" connectable="0" parent="PUT8d5aDhDW9RPfoJlv--31">
          <mxGeometry x="-0.7208" y="1" relative="1" as="geometry">
            <mxPoint as="offset" />
          </mxGeometry>
        </mxCell>
        <mxCell id="PUT8d5aDhDW9RPfoJlv--36" value="" style="edgeStyle=orthogonalEdgeStyle;rounded=0;orthogonalLoop=1;jettySize=auto;html=1;entryX=0;entryY=0.5;entryDx=0;entryDy=0;exitX=1;exitY=0.5;exitDx=0;exitDy=0;" edge="1" parent="WIyWlLk6GJQsqaUBKTNV-1" source="PUT8d5aDhDW9RPfoJlv--28" target="PUT8d5aDhDW9RPfoJlv--35">
          <mxGeometry relative="1" as="geometry">
            <Array as="points">
              <mxPoint x="270" y="915" />
              <mxPoint x="270" y="950" />
            </Array>
          </mxGeometry>
        </mxCell>
        <mxCell id="PUT8d5aDhDW9RPfoJlv--37" value="Yes" style="edgeLabel;html=1;align=center;verticalAlign=middle;resizable=0;points=[];" vertex="1" connectable="0" parent="PUT8d5aDhDW9RPfoJlv--36">
          <mxGeometry x="-0.465" y="-1" relative="1" as="geometry">
            <mxPoint as="offset" />
          </mxGeometry>
        </mxCell>
        <mxCell id="PUT8d5aDhDW9RPfoJlv--28" value="Are you satisfied &lt;br&gt;with your commit?" style="rhombus;whiteSpace=wrap;html=1;rounded=1;glass=0;strokeWidth=1;shadow=0;" vertex="1" parent="WIyWlLk6GJQsqaUBKTNV-1">
          <mxGeometry x="130" y="860" width="125" height="110" as="geometry" />
        </mxCell>
        <mxCell id="PUT8d5aDhDW9RPfoJlv--34" value="" style="edgeStyle=orthogonalEdgeStyle;rounded=0;orthogonalLoop=1;jettySize=auto;html=1;entryX=0;entryY=0.5;entryDx=0;entryDy=0;exitX=0.5;exitY=0;exitDx=0;exitDy=0;" edge="1" parent="WIyWlLk6GJQsqaUBKTNV-1" source="PUT8d5aDhDW9RPfoJlv--30" target="PUT8d5aDhDW9RPfoJlv--23">
          <mxGeometry relative="1" as="geometry">
            <mxPoint x="-60" y="730" as="targetPoint" />
          </mxGeometry>
        </mxCell>
        <mxCell id="PUT8d5aDhDW9RPfoJlv--30" value="Change or fix your program" style="whiteSpace=wrap;html=1;rounded=1;glass=0;strokeWidth=1;shadow=0;" vertex="1" parent="WIyWlLk6GJQsqaUBKTNV-1">
          <mxGeometry y="880" width="120" height="60" as="geometry" />
        </mxCell>
        <mxCell id="PUT8d5aDhDW9RPfoJlv--39" value="" style="edgeStyle=orthogonalEdgeStyle;rounded=0;orthogonalLoop=1;jettySize=auto;html=1;entryX=0;entryY=0.5;entryDx=0;entryDy=0;" edge="1" parent="WIyWlLk6GJQsqaUBKTNV-1" source="PUT8d5aDhDW9RPfoJlv--35" target="PUT8d5aDhDW9RPfoJlv--38">
          <mxGeometry relative="1" as="geometry" />
        </mxCell>
        <mxCell id="PUT8d5aDhDW9RPfoJlv--35" value="Press the typing box above the commit &amp;amp; push button" style="whiteSpace=wrap;html=1;rounded=1;glass=0;strokeWidth=1;shadow=0;" vertex="1" parent="WIyWlLk6GJQsqaUBKTNV-1">
          <mxGeometry x="310" y="920" width="120" height="60" as="geometry" />
        </mxCell>
        <mxCell id="PUT8d5aDhDW9RPfoJlv--45" value="" style="edgeStyle=orthogonalEdgeStyle;rounded=0;orthogonalLoop=1;jettySize=auto;html=1;" edge="1" parent="WIyWlLk6GJQsqaUBKTNV-1" source="PUT8d5aDhDW9RPfoJlv--38" target="PUT8d5aDhDW9RPfoJlv--44">
          <mxGeometry relative="1" as="geometry">
            <Array as="points">
              <mxPoint x="500" y="860" />
              <mxPoint x="500" y="840" />
            </Array>
          </mxGeometry>
        </mxCell>
        <mxCell id="PUT8d5aDhDW9RPfoJlv--38" value="Type in a name that is relative to your program" style="whiteSpace=wrap;html=1;rounded=1;glass=0;strokeWidth=1;shadow=0;" vertex="1" parent="WIyWlLk6GJQsqaUBKTNV-1">
          <mxGeometry x="370" y="830" width="120" height="60" as="geometry" />
        </mxCell>
        <mxCell id="PUT8d5aDhDW9RPfoJlv--47" value="" style="edgeStyle=orthogonalEdgeStyle;rounded=0;orthogonalLoop=1;jettySize=auto;html=1;entryX=0;entryY=0.5;entryDx=0;entryDy=0;exitX=0.5;exitY=0.929;exitDx=0;exitDy=0;exitPerimeter=0;" edge="1" parent="WIyWlLk6GJQsqaUBKTNV-1" source="PUT8d5aDhDW9RPfoJlv--44" target="PUT8d5aDhDW9RPfoJlv--46">
          <mxGeometry relative="1" as="geometry">
            <Array as="points">
              <mxPoint x="585" y="891" />
              <mxPoint x="585" y="900" />
              <mxPoint x="440" y="900" />
              <mxPoint x="440" y="945" />
            </Array>
          </mxGeometry>
        </mxCell>
        <mxCell id="PUT8d5aDhDW9RPfoJlv--48" value="Yes" style="edgeLabel;html=1;align=center;verticalAlign=middle;resizable=0;points=[];" vertex="1" connectable="0" parent="PUT8d5aDhDW9RPfoJlv--47">
          <mxGeometry x="-0.1475" y="-1" relative="1" as="geometry">
            <mxPoint as="offset" />
          </mxGeometry>
        </mxCell>
        <mxCell id="PUT8d5aDhDW9RPfoJlv--49" value="" style="edgeStyle=orthogonalEdgeStyle;rounded=0;orthogonalLoop=1;jettySize=auto;html=1;entryX=0.5;entryY=0;entryDx=0;entryDy=0;exitX=1;exitY=0.5;exitDx=0;exitDy=0;" edge="1" parent="WIyWlLk6GJQsqaUBKTNV-1" source="PUT8d5aDhDW9RPfoJlv--44" target="PUT8d5aDhDW9RPfoJlv--50">
          <mxGeometry relative="1" as="geometry">
            <mxPoint x="680" y="910" as="sourcePoint" />
            <mxPoint x="690" y="970" as="targetPoint" />
            <Array as="points">
              <mxPoint x="680" y="860" />
              <mxPoint x="680" y="900" />
              <mxPoint x="750" y="900" />
            </Array>
          </mxGeometry>
        </mxCell>
        <mxCell id="PUT8d5aDhDW9RPfoJlv--52" value="No" style="edgeLabel;html=1;align=center;verticalAlign=middle;resizable=0;points=[];" vertex="1" connectable="0" parent="PUT8d5aDhDW9RPfoJlv--49">
          <mxGeometry x="-0.0978" y="2" relative="1" as="geometry">
            <mxPoint as="offset" />
          </mxGeometry>
        </mxCell>
        <mxCell id="PUT8d5aDhDW9RPfoJlv--44" value="Does &lt;br&gt;the read me say &lt;br&gt;that there has to be a specific name &lt;br&gt;for your &lt;br&gt;file?" style="rhombus;whiteSpace=wrap;html=1;rounded=1;glass=0;strokeWidth=1;shadow=0;" vertex="1" parent="WIyWlLk6GJQsqaUBKTNV-1">
          <mxGeometry x="520" y="780" width="150" height="120" as="geometry" />
        </mxCell>
        <mxCell id="PUT8d5aDhDW9RPfoJlv--51" value="" style="edgeStyle=orthogonalEdgeStyle;rounded=0;orthogonalLoop=1;jettySize=auto;html=1;" edge="1" parent="WIyWlLk6GJQsqaUBKTNV-1" source="PUT8d5aDhDW9RPfoJlv--46" target="PUT8d5aDhDW9RPfoJlv--50">
          <mxGeometry relative="1" as="geometry" />
        </mxCell>
        <mxCell id="PUT8d5aDhDW9RPfoJlv--46" value="Type in a name for your file based off of the instructions in the read me" style="whiteSpace=wrap;html=1;rounded=1;glass=0;strokeWidth=1;shadow=0;" vertex="1" parent="WIyWlLk6GJQsqaUBKTNV-1">
          <mxGeometry x="495" y="910" width="130" height="70" as="geometry" />
        </mxCell>
        <mxCell id="PUT8d5aDhDW9RPfoJlv--58" value="" style="edgeStyle=orthogonalEdgeStyle;rounded=0;orthogonalLoop=1;jettySize=auto;html=1;" edge="1" parent="WIyWlLk6GJQsqaUBKTNV-1" source="PUT8d5aDhDW9RPfoJlv--50" target="PUT8d5aDhDW9RPfoJlv--57">
          <mxGeometry relative="1" as="geometry" />
        </mxCell>
        <mxCell id="PUT8d5aDhDW9RPfoJlv--50" value="Press the Commit &amp;amp; Push button" style="whiteSpace=wrap;html=1;rounded=1;glass=0;strokeWidth=1;shadow=0;" vertex="1" parent="WIyWlLk6GJQsqaUBKTNV-1">
          <mxGeometry x="690" y="920" width="120" height="60" as="geometry" />
        </mxCell>
        <mxCell id="PUT8d5aDhDW9RPfoJlv--60" value="" style="edgeStyle=orthogonalEdgeStyle;rounded=0;orthogonalLoop=1;jettySize=auto;html=1;" edge="1" parent="WIyWlLk6GJQsqaUBKTNV-1" source="PUT8d5aDhDW9RPfoJlv--57" target="PUT8d5aDhDW9RPfoJlv--59">
          <mxGeometry relative="1" as="geometry" />
        </mxCell>
        <mxCell id="PUT8d5aDhDW9RPfoJlv--57" value="Go back to your fork of the repository" style="whiteSpace=wrap;html=1;rounded=1;glass=0;strokeWidth=1;shadow=0;" vertex="1" parent="WIyWlLk6GJQsqaUBKTNV-1">
          <mxGeometry x="860" y="920" width="120" height="60" as="geometry" />
        </mxCell>
        <mxCell id="PUT8d5aDhDW9RPfoJlv--64" value="" style="edgeStyle=orthogonalEdgeStyle;rounded=0;orthogonalLoop=1;jettySize=auto;html=1;" edge="1" parent="WIyWlLk6GJQsqaUBKTNV-1" source="PUT8d5aDhDW9RPfoJlv--59" target="PUT8d5aDhDW9RPfoJlv--63">
          <mxGeometry relative="1" as="geometry" />
        </mxCell>
        <mxCell id="PUT8d5aDhDW9RPfoJlv--59" value="Click on Contribute in the bar that says &quot;This branch is 1 commits ahead&quot;" style="whiteSpace=wrap;html=1;rounded=1;glass=0;strokeWidth=1;shadow=0;" vertex="1" parent="WIyWlLk6GJQsqaUBKTNV-1">
          <mxGeometry x="850" y="810" width="140" height="80" as="geometry" />
        </mxCell>
        <mxCell id="PUT8d5aDhDW9RPfoJlv--71" value="" style="edgeStyle=orthogonalEdgeStyle;rounded=0;orthogonalLoop=1;jettySize=auto;html=1;" edge="1" parent="WIyWlLk6GJQsqaUBKTNV-1" source="PUT8d5aDhDW9RPfoJlv--61" target="PUT8d5aDhDW9RPfoJlv--70">
          <mxGeometry relative="1" as="geometry" />
        </mxCell>
        <mxCell id="PUT8d5aDhDW9RPfoJlv--61" value="Type in the comments section following the read me instructions." style="whiteSpace=wrap;html=1;rounded=1;glass=0;strokeWidth=1;shadow=0;" vertex="1" parent="WIyWlLk6GJQsqaUBKTNV-1">
          <mxGeometry x="800" y="520" width="140" height="80" as="geometry" />
        </mxCell>
        <mxCell id="PUT8d5aDhDW9RPfoJlv--65" value="" style="edgeStyle=orthogonalEdgeStyle;rounded=0;orthogonalLoop=1;jettySize=auto;html=1;" edge="1" parent="WIyWlLk6GJQsqaUBKTNV-1" source="PUT8d5aDhDW9RPfoJlv--63" target="PUT8d5aDhDW9RPfoJlv--61">
          <mxGeometry relative="1" as="geometry" />
        </mxCell>
        <mxCell id="PUT8d5aDhDW9RPfoJlv--66" value="Yes" style="edgeLabel;html=1;align=center;verticalAlign=middle;resizable=0;points=[];" vertex="1" connectable="0" parent="PUT8d5aDhDW9RPfoJlv--65">
          <mxGeometry x="0.1583" y="1" relative="1" as="geometry">
            <mxPoint as="offset" />
          </mxGeometry>
        </mxCell>
        <mxCell id="PUT8d5aDhDW9RPfoJlv--68" value="" style="edgeStyle=orthogonalEdgeStyle;rounded=0;orthogonalLoop=1;jettySize=auto;html=1;entryX=0.5;entryY=1;entryDx=0;entryDy=0;" edge="1" parent="WIyWlLk6GJQsqaUBKTNV-1" source="PUT8d5aDhDW9RPfoJlv--63" target="PUT8d5aDhDW9RPfoJlv--67">
          <mxGeometry relative="1" as="geometry" />
        </mxCell>
        <mxCell id="PUT8d5aDhDW9RPfoJlv--69" value="No" style="edgeLabel;html=1;align=center;verticalAlign=middle;resizable=0;points=[];" vertex="1" connectable="0" parent="PUT8d5aDhDW9RPfoJlv--68">
          <mxGeometry x="-0.2084" y="2" relative="1" as="geometry">
            <mxPoint as="offset" />
          </mxGeometry>
        </mxCell>
        <mxCell id="PUT8d5aDhDW9RPfoJlv--63" value="Does the &lt;br&gt;read &lt;br&gt;me have instructions on &lt;br&gt;what to type in the &lt;br&gt;comments of your &lt;br&gt;pull request?" style="rhombus;whiteSpace=wrap;html=1;rounded=1;glass=0;strokeWidth=1;shadow=0;" vertex="1" parent="WIyWlLk6GJQsqaUBKTNV-1">
          <mxGeometry x="835" y="640" width="170" height="140" as="geometry" />
        </mxCell>
        <mxCell id="PUT8d5aDhDW9RPfoJlv--73" value="" style="edgeStyle=orthogonalEdgeStyle;rounded=0;orthogonalLoop=1;jettySize=auto;html=1;entryX=1;entryY=0.5;entryDx=0;entryDy=0;" edge="1" parent="WIyWlLk6GJQsqaUBKTNV-1" source="PUT8d5aDhDW9RPfoJlv--67" target="PUT8d5aDhDW9RPfoJlv--70">
          <mxGeometry relative="1" as="geometry">
            <mxPoint x="1070" y="510" as="targetPoint" />
          </mxGeometry>
        </mxCell>
        <mxCell id="PUT8d5aDhDW9RPfoJlv--67" value="Type a description of your commits and why it helps the repository" style="whiteSpace=wrap;html=1;rounded=1;glass=0;strokeWidth=1;shadow=0;" vertex="1" parent="WIyWlLk6GJQsqaUBKTNV-1">
          <mxGeometry x="1010" y="590" width="120" height="60" as="geometry" />
        </mxCell>
        <mxCell id="PUT8d5aDhDW9RPfoJlv--75" value="" style="edgeStyle=orthogonalEdgeStyle;rounded=0;orthogonalLoop=1;jettySize=auto;html=1;entryX=0.5;entryY=1;entryDx=0;entryDy=0;" edge="1" parent="WIyWlLk6GJQsqaUBKTNV-1" source="PUT8d5aDhDW9RPfoJlv--70" target="PUT8d5aDhDW9RPfoJlv--76">
          <mxGeometry relative="1" as="geometry">
            <mxPoint x="887" y="320" as="targetPoint" />
          </mxGeometry>
        </mxCell>
        <mxCell id="PUT8d5aDhDW9RPfoJlv--70" value="Click make pull request button" style="whiteSpace=wrap;html=1;rounded=1;glass=0;strokeWidth=1;shadow=0;" vertex="1" parent="WIyWlLk6GJQsqaUBKTNV-1">
          <mxGeometry x="800" y="390" width="120" height="60" as="geometry" />
        </mxCell>
        <mxCell id="PUT8d5aDhDW9RPfoJlv--78" value="" style="edgeStyle=orthogonalEdgeStyle;rounded=0;orthogonalLoop=1;jettySize=auto;html=1;exitX=1;exitY=0.5;exitDx=0;exitDy=0;entryX=0;entryY=0.5;entryDx=0;entryDy=0;" edge="1" parent="WIyWlLk6GJQsqaUBKTNV-1" source="PUT8d5aDhDW9RPfoJlv--76" target="PUT8d5aDhDW9RPfoJlv--83">
          <mxGeometry relative="1" as="geometry">
            <mxPoint x="980" y="365.0526315789475" as="targetPoint" />
            <Array as="points">
              <mxPoint x="940" y="280" />
              <mxPoint x="940" y="393" />
              <mxPoint x="990" y="393" />
            </Array>
          </mxGeometry>
        </mxCell>
        <mxCell id="PUT8d5aDhDW9RPfoJlv--79" value="Yes" style="edgeLabel;html=1;align=center;verticalAlign=middle;resizable=0;points=[];" vertex="1" connectable="0" parent="PUT8d5aDhDW9RPfoJlv--78">
          <mxGeometry x="-0.1116" y="1" relative="1" as="geometry">
            <mxPoint as="offset" />
          </mxGeometry>
        </mxCell>
        <mxCell id="PUT8d5aDhDW9RPfoJlv--81" value="" style="edgeStyle=orthogonalEdgeStyle;rounded=0;orthogonalLoop=1;jettySize=auto;html=1;exitX=0.5;exitY=0;exitDx=0;exitDy=0;entryX=1;entryY=0;entryDx=0;entryDy=0;" edge="1" parent="WIyWlLk6GJQsqaUBKTNV-1" source="PUT8d5aDhDW9RPfoJlv--76" target="PUT8d5aDhDW9RPfoJlv--76">
          <mxGeometry relative="1" as="geometry">
            <mxPoint x="960" y="270" as="targetPoint" />
            <Array as="points">
              <mxPoint x="860" y="190" />
              <mxPoint x="945" y="190" />
              <mxPoint x="945" y="250" />
            </Array>
          </mxGeometry>
        </mxCell>
        <mxCell id="PUT8d5aDhDW9RPfoJlv--82" value="No" style="edgeLabel;html=1;align=center;verticalAlign=middle;resizable=0;points=[];" vertex="1" connectable="0" parent="PUT8d5aDhDW9RPfoJlv--81">
          <mxGeometry x="-0.4264" y="-3" relative="1" as="geometry">
            <mxPoint as="offset" />
          </mxGeometry>
        </mxCell>
        <mxCell id="PUT8d5aDhDW9RPfoJlv--76" value="Is your pull request accepted/merged?" style="rhombus;whiteSpace=wrap;html=1;" vertex="1" parent="WIyWlLk6GJQsqaUBKTNV-1">
          <mxGeometry x="795" y="220" width="130" height="120" as="geometry" />
        </mxCell>
        <mxCell id="PUT8d5aDhDW9RPfoJlv--86" value="" style="edgeStyle=orthogonalEdgeStyle;rounded=0;orthogonalLoop=1;jettySize=auto;html=1;entryX=0;entryY=0.5;entryDx=0;entryDy=0;" edge="1" parent="WIyWlLk6GJQsqaUBKTNV-1" source="PUT8d5aDhDW9RPfoJlv--83" target="WIyWlLk6GJQsqaUBKTNV-11">
          <mxGeometry relative="1" as="geometry">
            <mxPoint x="1085" y="328.75" as="targetPoint" />
            <Array as="points">
              <mxPoint x="1085" y="180" />
              <mxPoint x="30" y="180" />
              <mxPoint x="30" y="460" />
            </Array>
          </mxGeometry>
        </mxCell>
        <mxCell id="PUT8d5aDhDW9RPfoJlv--87" value="No" style="edgeLabel;html=1;align=center;verticalAlign=middle;resizable=0;points=[];" vertex="1" connectable="0" parent="PUT8d5aDhDW9RPfoJlv--86">
          <mxGeometry x="-0.9146" y="-1" relative="1" as="geometry">
            <mxPoint as="offset" />
          </mxGeometry>
        </mxCell>
        <mxCell id="PUT8d5aDhDW9RPfoJlv--89" value="" style="edgeStyle=orthogonalEdgeStyle;rounded=0;orthogonalLoop=1;jettySize=auto;html=1;entryX=0.5;entryY=0;entryDx=0;entryDy=0;" edge="1" parent="WIyWlLk6GJQsqaUBKTNV-1" source="PUT8d5aDhDW9RPfoJlv--83" target="PUT8d5aDhDW9RPfoJlv--90">
          <mxGeometry relative="1" as="geometry">
            <mxPoint x="1219.947368421053" y="580" as="targetPoint" />
          </mxGeometry>
        </mxCell>
        <mxCell id="PUT8d5aDhDW9RPfoJlv--91" value="Yes" style="edgeLabel;html=1;align=center;verticalAlign=middle;resizable=0;points=[];" vertex="1" connectable="0" parent="PUT8d5aDhDW9RPfoJlv--89">
          <mxGeometry x="-0.0692" y="6" relative="1" as="geometry">
            <mxPoint as="offset" />
          </mxGeometry>
        </mxCell>
        <mxCell id="PUT8d5aDhDW9RPfoJlv--83" value="Do you have 4 pending &lt;br&gt;pull requests?" style="rhombus;whiteSpace=wrap;html=1;" vertex="1" parent="WIyWlLk6GJQsqaUBKTNV-1">
          <mxGeometry x="1010" y="430" width="150" height="102.5" as="geometry" />
        </mxCell>
        <mxCell id="PUT8d5aDhDW9RPfoJlv--93" value="" style="edgeStyle=orthogonalEdgeStyle;rounded=0;orthogonalLoop=1;jettySize=auto;html=1;exitX=1;exitY=0.5;exitDx=0;exitDy=0;entryX=1;entryY=0.5;entryDx=0;entryDy=0;" edge="1" parent="WIyWlLk6GJQsqaUBKTNV-1" source="PUT8d5aDhDW9RPfoJlv--90" target="PUT8d5aDhDW9RPfoJlv--83">
          <mxGeometry relative="1" as="geometry">
            <mxPoint x="1410" y="630" as="targetPoint" />
            <Array as="points">
              <mxPoint x="1310" y="630" />
              <mxPoint x="1310" y="481" />
            </Array>
          </mxGeometry>
        </mxCell>
        <mxCell id="PUT8d5aDhDW9RPfoJlv--94" value="No" style="edgeLabel;html=1;align=center;verticalAlign=middle;resizable=0;points=[];" vertex="1" connectable="0" parent="PUT8d5aDhDW9RPfoJlv--93">
          <mxGeometry x="0.1011" y="2" relative="1" as="geometry">
            <mxPoint x="-3" y="7" as="offset" />
          </mxGeometry>
        </mxCell>
        <mxCell id="PUT8d5aDhDW9RPfoJlv--96" value="" style="edgeStyle=orthogonalEdgeStyle;rounded=0;orthogonalLoop=1;jettySize=auto;html=1;entryX=1;entryY=0.5;entryDx=0;entryDy=0;" edge="1" parent="WIyWlLk6GJQsqaUBKTNV-1" source="PUT8d5aDhDW9RPfoJlv--90" target="PUT8d5aDhDW9RPfoJlv--98">
          <mxGeometry relative="1" as="geometry">
            <mxPoint x="1215" y="780" as="targetPoint" />
          </mxGeometry>
        </mxCell>
        <mxCell id="PUT8d5aDhDW9RPfoJlv--97" value="Yes" style="edgeLabel;html=1;align=center;verticalAlign=middle;resizable=0;points=[];" vertex="1" connectable="0" parent="PUT8d5aDhDW9RPfoJlv--96">
          <mxGeometry x="-0.2021" y="-3" relative="1" as="geometry">
            <mxPoint as="offset" />
          </mxGeometry>
        </mxCell>
        <mxCell id="PUT8d5aDhDW9RPfoJlv--90" value="Are your 4 pull &lt;br&gt;requests accepted in &lt;br&gt;Hacktoberfest?" style="rhombus;whiteSpace=wrap;html=1;" vertex="1" parent="WIyWlLk6GJQsqaUBKTNV-1">
          <mxGeometry x="1140" y="580" width="150" height="100" as="geometry" />
        </mxCell>
        <mxCell id="PUT8d5aDhDW9RPfoJlv--98" value="End" style="rounded=1;whiteSpace=wrap;html=1;" vertex="1" parent="WIyWlLk6GJQsqaUBKTNV-1">
          <mxGeometry x="1060" y="740" width="120" height="60" as="geometry" />
        </mxCell>
      </root>
    </mxGraphModel>
  </diagram>
</mxfile>
